<?xml version="1.0" encoding="utf-8"?>
<!-- Generator: Adobe Illustrator 25.4.1, SVG Export Plug-In . SVG Version: 6.00 Build 0)  -->
<svg version="1.1" id="bfd70fe1-5f0f-4d80-bc44-9c241cc81d41"
	 xmlns="http://www.w3.org/2000/svg" xmlns:xlink="http://www.w3.org/1999/xlink" x="0px" y="0px" viewBox="0 0 32 32"
	 style="enable-background:new 0 0 32 32;" xml:space="preserve">
<style type="text/css">
	.st0{fill:#3C6E71;}
</style>
<path class="st0" d="M32,6.7C32,7.4,31.4,8,30.7,8H1.3C0.6,8,0,7.4,0,6.7V4c0-0.7,0.6-1.3,1.3-1.3h29.3C31.3,2.7,32,3.3,32,4
	c0,0,0,0,0,0l0,0V6.7z M32,17.3c0,0.7-0.6,1.3-1.3,1.3H1.3C0.6,18.6,0,18,0,17.3v-2.7c0-0.7,0.6-1.3,1.3-1.3h29.3
	c0.7,0,1.3,0.6,1.3,1.3v2.7L32,17.3z M32,28c0,0.7-0.6,1.3-1.3,1.3H1.3C0.6,29.3,0,28.7,0,28v-2.7C0,24.6,0.6,24,1.3,24h29.3
	c0.7,0,1.3,0.6,1.3,1.3V28H32z"/>
</svg>
